<?xml version="1.0" encoding="UTF-8"?>
<svg version="1.1" xmlns="http://www.w3.org/2000/svg" width="603" height="603">
<path d="M0 0 C2.57658884 -0.00707529 5.15317354 -0.01582699 7.72975159 -0.02610779 C13.94903509 -0.04753923 20.16813418 -0.04767524 26.38744234 -0.03948224 C31.45159707 -0.03313338 36.51569879 -0.0343635 41.57985306 -0.04075432 C42.30583787 -0.04165597 43.03182269 -0.04255763 43.77980704 -0.04348661 C45.25552802 -0.04533817 46.73124898 -0.04720073 48.20696993 -0.04907417 C61.98571182 -0.06558006 75.76435074 -0.05699535 89.54308636 -0.04008859 C102.0939976 -0.02539942 114.64466925 -0.0400218 127.19554965 -0.06885875 C140.14742363 -0.09839072 153.09918758 -0.10918501 166.0510937 -0.09967655 C167.52142435 -0.09865421 168.99175503 -0.09765959 170.46208572 -0.09669304 C171.18514382 -0.09621665 171.90820192 -0.09574026 172.65317088 -0.09524943 C177.69813881 -0.09310336 182.74300038 -0.10279184 187.78794479 -0.11746407 C194.60581413 -0.13701957 201.42323539 -0.12967691 208.24108696 -0.10526466 C210.72445525 -0.10030508 213.20785807 -0.10361797 215.69119835 -0.11641312 C231.66500466 -0.19212415 246.19438271 1.47586812 261.65478516 5.53344727 C262.98770855 5.8684161 264.3209109 6.20228515 265.65478516 6.53344727 C265.65478516 7.19344727 265.65478516 7.85344727 265.65478516 8.53344727 C266.29416016 8.61594727 266.93353516 8.69844727 267.59228516 8.78344727 C271.86020033 9.82865098 275.68586182 11.67436553 279.65478516 13.53344727 C279.65478516 14.19344727 279.65478516 14.85344727 279.65478516 15.53344727 C280.35603516 15.78094727 281.05728516 16.02844727 281.77978516 16.28344727 C287.43838396 18.74370762 296.78210235 23.78808166 299.65478516 29.53344727 C317.80478516 29.86344727 335.95478516 30.19344727 354.65478516 30.53344727 C354.8553292 55.21819114 354.8553292 55.21819114 354.89892578 65.80102539 C354.92872852 73.00116574 354.96385277 80.2009859 355.03198242 87.40087891 C355.08660786 93.21050827 355.11627 99.0197939 355.12917137 104.82966042 C355.13835661 107.0378847 355.15629237 109.24609176 355.18343544 111.45416832 C355.50046668 138.33172071 355.50046668 138.33172071 348.04341125 146.2429657 C347.58516464 146.66882462 347.12691803 147.09468353 346.65478516 147.53344727 C346.36603516 148.15219727 346.07728516 148.77094727 345.77978516 149.40844727 C343.51107029 153.69379757 339.81334806 156.49217645 335.90478516 159.22094727 C332.64843469 161.15490091 332.64843469 161.15490091 331.65478516 163.53344727 C331.51617092 166.51201721 331.43739065 169.46917403 331.40185547 172.44946289 C331.38713699 173.37313156 331.37241852 174.29680023 331.35725403 175.24845886 C331.31024435 178.3121531 331.27094086 181.37587912 331.23291016 184.43969727 C331.21905022 185.48346024 331.20519028 186.52722321 331.19091034 187.60261536 C331.11762852 193.12263601 331.05006328 198.6426918 330.98730469 204.1628418 C330.92127502 209.87995248 330.83668556 215.59662969 330.74773026 221.31342316 C330.6827693 225.69694163 330.63121755 230.08054329 330.58339691 234.46427917 C330.55807405 236.57275474 330.52768408 238.68117554 330.49222565 240.789505 C330.44403234 243.73218627 330.41469949 246.67447172 330.39013672 249.61743164 C330.3715712 250.49541916 330.35300568 251.37340668 330.33387756 252.27799988 C330.28840495 254.93895973 330.28840495 254.93895973 330.65478516 258.53344727 C331.64478516 259.19344727 332.63478516 259.85344727 333.65478516 260.53344727 C333.65478516 261.19344727 333.65478516 261.85344727 333.65478516 262.53344727 C334.49009766 262.90469727 334.49009766 262.90469727 335.34228516 263.28344727 C339.65711481 265.61578762 343.4298165 268.8477688 346.65478516 272.53344727 C347.27978516 274.65844727 347.27978516 274.65844727 347.65478516 276.53344727 C348.31478516 277.19344727 348.97478516 277.85344727 349.65478516 278.53344727 C353.32612165 288.93556734 353.09688495 301.41003528 348.65478516 311.53344727 C345.99347725 316.30544764 342.66289646 319.87386738 338.65478516 323.53344727 C337.99478516 323.53344727 337.33478516 323.53344727 336.65478516 323.53344727 C336.65478516 324.52344727 336.65478516 325.51344727 336.65478516 326.53344727 C334.13429123 327.32620766 331.61340502 328.11768192 329.09228516 328.90844727 C328.3878125 329.13016602 327.68333984 329.35188477 326.95751953 329.58032227 C326.25820313 329.79946289 325.55888672 330.01860352 324.83837891 330.24438477 C324.20472412 330.44338379 323.57106934 330.64238281 322.91821289 330.84741211 C319.84095214 331.78011653 316.74798309 332.65527287 313.65478516 333.53344727 C313.66264038 334.78605347 313.66264038 334.78605347 313.6706543 336.06396484 C313.80105599 360.49860201 313.42530669 384.9039966 312.71795654 409.32849121 C312.66199391 411.28183058 312.60954568 413.23526993 312.55761719 415.1887207 C311.93399282 437.68852406 310.61342407 460.03385628 299.85009766 480.24047852 C298.22645431 483.3551146 296.88945816 486.57374965 295.54931641 489.81860352 C294.65478516 491.53344727 294.65478516 491.53344727 292.65478516 492.53344727 C291.93572071 493.83926829 291.27736977 495.17896928 290.65478516 496.53344727 C289.87762636 498.08247807 289.08546745 499.6240587 288.27978516 501.15844727 C287.68037109 502.3224707 287.68037109 502.3224707 287.06884766 503.51000977 C285.46971091 505.79827726 284.15656231 506.40817093 281.65478516 507.53344727 C281.28930071 508.85832839 280.96102855 510.1936324 280.65478516 511.53344727 C278.09718212 515.18716589 275.28996911 517.9505534 271.65478516 520.53344727 C270.99478516 520.53344727 270.33478516 520.53344727 269.65478516 520.53344727 C269.65478516 521.52344727 269.65478516 522.51344727 269.65478516 523.53344727 C268.56166016 524.04907227 267.46853516 524.56469727 266.34228516 525.09594727 C256.44018202 530.11697836 245.82253642 536.19794475 240.65478516 546.53344727 C239.99478516 546.53344727 239.33478516 546.53344727 238.65478516 546.53344727 C238.65478516 547.19344727 238.65478516 547.85344727 238.65478516 548.53344727 C237.99478516 548.53344727 237.33478516 548.53344727 236.65478516 548.53344727 C236.32478516 549.52344727 235.99478516 550.51344727 235.65478516 551.53344727 C234.01806641 553.18188477 234.01806641 553.18188477 231.96728516 554.90844727 C231.24541016 555.52204102 230.52353516 556.13563477 229.77978516 556.76782227 C228.01271968 558.23604579 226.24126908 559.69860633 224.46728516 561.15844727 C221.64957863 563.45997455 221.64957863 563.45997455 219.27978516 565.97094727 C213.71105389 571.40708969 206.83179083 577.53344727 198.65478516 577.53344727 C198.65478516 578.19344727 198.65478516 578.85344727 198.65478516 579.53344727 C196.67710233 580.16312681 194.6975458 580.78692216 192.71728516 581.40844727 C191.61513672 581.75649414 190.51298828 582.10454102 189.37744141 582.46313477 C180.70880443 584.9554816 172.89139315 585.83841874 163.84912109 585.85571289 C162.59406769 585.8656427 161.33901428 585.87557251 160.04592896 585.88580322 C156.62361115 585.90989099 153.20153573 585.92490469 149.77916241 585.93382454 C147.62962266 585.93972344 145.48010335 585.94794013 143.33057404 585.95683289 C136.57253501 585.98414377 129.8145438 586.00349084 123.05645347 586.01123667 C115.31715479 586.02016109 107.57856909 586.05509927 99.83948684 586.11323786 C93.81863088 586.15685929 87.79797248 586.17666589 81.77696061 586.1793189 C78.19965689 586.1813895 74.62302471 586.19264099 71.04589081 586.22895813 C52.46506226 586.40657821 33.46475441 586.41721898 17.47594833 575.70749664 C15.59410747 574.49433018 13.67225063 573.50089458 11.65478516 572.53344727 C11.65478516 571.87344727 11.65478516 571.21344727 11.65478516 570.53344727 C10.94837891 570.2949707 10.24197266 570.05649414 9.51416016 569.81079102 C0.37203341 565.72680817 -6.31932574 557.55503392 -12.29833984 549.83032227 C-15.07871451 546.71035986 -17.3640092 545.6346318 -21.34521484 544.53344727 C-21.34521484 543.87344727 -21.34521484 543.21344727 -21.34521484 542.53344727 C-22.00521484 542.53344727 -22.66521484 542.53344727 -23.34521484 542.53344727 C-23.34521484 541.87344727 -23.34521484 541.21344727 -23.34521484 540.53344727 C-24.14958984 540.37875977 -24.14958984 540.37875977 -24.97021484 540.22094727 C-27.97884088 539.3500292 -30.57041544 537.97865529 -33.34521484 536.53344727 C-34.52083984 535.94563477 -34.52083984 535.94563477 -35.72021484 535.34594727 C-36.25646484 535.07782227 -36.79271484 534.80969727 -37.34521484 534.53344727 C-37.34521484 533.87344727 -37.34521484 533.21344727 -37.34521484 532.53344727 C-38.99521484 531.87344727 -40.64521484 531.21344727 -42.34521484 530.53344727 C-42.34521484 529.87344727 -42.34521484 529.21344727 -42.34521484 528.53344727 C-43.02583984 528.30657227 -43.70646484 528.07969727 -44.40771484 527.84594727 C-52.80358033 524.09460311 -58.63380657 517.52996054 -64.40771484 510.53344727 C-65.24431641 509.52282227 -66.08091797 508.51219727 -66.94287109 507.47094727 C-68.13203125 506.01688477 -68.13203125 506.01688477 -69.34521484 504.53344727 C-70.43382812 503.20893555 -70.43382812 503.20893555 -71.54443359 501.85766602 C-73.90063314 498.81658417 -76.34521484 495.48793078 -76.34521484 491.53344727 C-77.00521484 491.20344727 -77.66521484 490.87344727 -78.34521484 490.53344727 C-79.02653935 488.87271877 -79.69263611 487.20568027 -80.34521484 485.53344727 C-81.00521484 484.87344727 -81.66521484 484.21344727 -82.34521484 483.53344727 C-84.88862303 478.4466309 -85.84905144 474.18971012 -86.34521484 468.53344727 C-87.00521484 468.53344727 -87.66521484 468.53344727 -88.34521484 468.53344727 C-91.17027034 457.79823638 -93.02159082 447.64993251 -93.34521484 436.53344727 C-94.00521484 436.53344727 -94.66521484 436.53344727 -95.34521484 436.53344727 C-96.6172115 425.44920113 -96.4729437 414.37379466 -96.44287109 403.23657227 C-96.44100267 401.19106074 -96.43958077 399.14554876 -96.43858337 397.10003662 C-96.43479161 391.75393405 -96.42499039 386.40785928 -96.41387939 381.06176758 C-96.40359291 375.5913938 -96.39907034 370.12101546 -96.39404297 364.65063477 C-96.38336467 353.94489349 -96.36632907 343.2391727 -96.34521484 332.53344727 C-97.44841064 332.38705811 -98.55160645 332.24066895 -99.68823242 332.08984375 C-102.8920357 331.60239681 -105.14256298 330.97097463 -108.03271484 329.59594727 C-108.75845703 329.25692383 -109.48419922 328.91790039 -110.23193359 328.56860352 C-110.92931641 328.22700195 -111.62669922 327.88540039 -112.34521484 327.53344727 C-113.39128906 327.04618164 -113.39128906 327.04618164 -114.45849609 326.54907227 C-118.98239746 324.11384586 -122.35685965 319.62860068 -125.34521484 315.53344727 C-125.34521484 314.87344727 -125.34521484 314.21344727 -125.34521484 313.53344727 C-126.33521484 313.20344727 -127.32521484 312.87344727 -128.34521484 312.53344727 C-133.02149804 303.18088088 -133.70232554 292.86540961 -131.17724609 282.72875977 C-129.59631417 278.5574746 -126.9379763 275.125575 -124.34521484 271.53344727 C-123.80896484 270.58469727 -123.27271484 269.63594727 -122.72021484 268.65844727 C-121.21104038 266.32608673 -119.65523498 265.04690874 -117.34521484 263.53344727 C-117.50787338 262.56712875 -117.67053192 261.60081024 -117.83811951 260.60520935 C-118.46472907 256.1906562 -118.47812397 251.83724163 -118.45874023 247.38525391 C-118.45888626 246.4966568 -118.45903229 245.60805969 -118.45918274 244.6925354 C-118.45849003 241.77619932 -118.45072782 238.85992834 -118.44287109 235.94360352 C-118.44100463 233.91336604 -118.43958181 231.88312811 -118.43858337 229.85289001 C-118.43477615 224.52479801 -118.42496126 219.19673352 -118.41387939 213.86865234 C-118.40362661 208.42554089 -118.39907748 202.98242497 -118.39404297 197.53930664 C-118.38333732 186.8706748 -118.36628254 176.20206333 -118.34521484 165.53344727 C-119.75661743 165.07965698 -119.75661743 165.07965698 -121.1965332 164.61669922 C-130.20616811 161.51708302 -136.56970286 154.84909578 -142.34521484 147.53344727 C-142.82408646 147.12868164 -143.30295807 146.72391602 -143.79634094 146.30688477 C-152.76730557 136.03526416 -150.99403165 118.09631555 -150.83349609 105.53344727 C-150.82414793 103.35913921 -150.81704132 101.18482048 -150.8120575 99.01049805 C-150.7931454 93.34193841 -150.74418389 87.67403942 -150.6885376 82.0057373 C-150.637001 76.19996065 -150.61447058 70.39407519 -150.58935547 64.58813477 C-150.53604727 53.23628512 -150.45093015 41.88492155 -150.34521484 30.53344727 C-149.58623901 30.53646347 -148.82726318 30.53947968 -148.04528809 30.54258728 C-140.86584935 30.56490306 -133.6876051 30.5535143 -126.50832367 30.50498104 C-122.81792818 30.48120285 -119.12843256 30.47011332 -115.43798828 30.48876953 C-111.87122943 30.50632115 -108.30608084 30.48956541 -104.73951721 30.44976997 C-102.72785723 30.43605615 -100.71605628 30.45718016 -98.70446777 30.47898865 C-92.46764963 30.38100364 -88.35142311 30.2340854 -83.57373047 25.97705078 C-82.98386353 25.33550552 -82.39399658 24.69396027 -81.78625488 24.03297424 C-81.07294006 23.29070839 -81.07294006 23.29070839 -80.34521484 22.53344727 C-79.68521484 22.53344727 -79.02521484 22.53344727 -78.34521484 22.53344727 C-78.34521484 21.87344727 -78.34521484 21.21344727 -78.34521484 20.53344727 C-76.66552734 19.24438477 -76.66552734 19.24438477 -74.47021484 17.90844727 C-73.75091797 17.46243164 -73.03162109 17.01641602 -72.29052734 16.55688477 C-70.34521484 15.53344727 -70.34521484 15.53344727 -68.34521484 15.53344727 C-68.34521484 14.87344727 -68.34521484 14.21344727 -68.34521484 13.53344727 C-63.67854818 11.53344727 -59.01188151 9.53344727 -54.34521484 7.53344727 C-53.33894358 7.06449256 -52.33267231 6.59553785 -51.29590797 6.1123724 C-35.33700347 -0.68289896 -16.97898597 -0.04965678 0 0 Z " fill="#FCC88A" transform="translate(213.34521484375,1.466552734375)"/>
<path d="M0 0 C2.57658884 -0.00707529 5.15317354 -0.01582699 7.72975159 -0.02610779 C13.94903509 -0.04753923 20.16813418 -0.04767524 26.38744234 -0.03948224 C31.45159707 -0.03313338 36.51569879 -0.0343635 41.57985306 -0.04075432 C42.30583787 -0.04165597 43.03182269 -0.04255763 43.77980704 -0.04348661 C45.25552802 -0.04533817 46.73124898 -0.04720073 48.20696993 -0.04907417 C61.98571182 -0.06558006 75.76435074 -0.05699535 89.54308636 -0.04008859 C102.0939976 -0.02539942 114.64466925 -0.0400218 127.19554965 -0.06885875 C140.14742363 -0.09839072 153.09918758 -0.10918501 166.0510937 -0.09967655 C167.52142435 -0.09865421 168.99175503 -0.09765959 170.46208572 -0.09669304 C171.18514382 -0.09621665 171.90820192 -0.09574026 172.65317088 -0.09524943 C177.69813881 -0.09310336 182.74300038 -0.10279184 187.78794479 -0.11746407 C194.60581413 -0.13701957 201.42323539 -0.12967691 208.24108696 -0.10526466 C210.72445525 -0.10030508 213.20785807 -0.10361797 215.69119835 -0.11641312 C231.66500466 -0.19212415 246.19438271 1.47586812 261.65478516 5.53344727 C262.98770855 5.8684161 264.3209109 6.20228515 265.65478516 6.53344727 C265.65478516 7.19344727 265.65478516 7.85344727 265.65478516 8.53344727 C266.29416016 8.61594727 266.93353516 8.69844727 267.59228516 8.78344727 C271.86020033 9.82865098 275.68586182 11.67436553 279.65478516 13.53344727 C279.65478516 14.19344727 279.65478516 14.85344727 279.65478516 15.53344727 C280.35603516 15.78094727 281.05728516 16.02844727 281.77978516 16.28344727 C287.43838396 18.74370762 296.78210235 23.78808166 299.65478516 29.53344727 C317.80478516 29.86344727 335.95478516 30.19344727 354.65478516 30.53344727 C354.8553292 55.21819114 354.8553292 55.21819114 354.89892578 65.80102539 C354.92872852 73.00116574 354.96385277 80.2009859 355.03198242 87.40087891 C355.08660786 93.21050827 355.11627 99.0197939 355.12917137 104.82966042 C355.13835661 107.0378847 355.15629237 109.24609176 355.18343544 111.45416832 C355.50046668 138.33172071 355.50046668 138.33172071 348.04341125 146.2429657 C347.58516464 146.66882462 347.12691803 147.09468353 346.65478516 147.53344727 C346.36603516 148.15219727 346.07728516 148.77094727 345.77978516 149.40844727 C343.51107029 153.69379757 339.81334806 156.49217645 335.90478516 159.22094727 C332.64843469 161.15490091 332.64843469 161.15490091 331.65478516 163.53344727 C331.53758556 166.13459825 331.47961124 168.71052599 331.46533203 171.31274414 C331.45703873 172.11627319 331.44874542 172.91980225 331.44020081 173.74768066 C331.42277714 175.49700431 331.40761669 177.2463516 331.39442444 178.99571228 C331.373392 181.77108813 331.34636293 184.54634791 331.31774902 187.32165527 C331.25799051 193.22554088 331.2059666 199.12948196 331.15478516 205.03344727 C331.09539448 211.84877071 331.03279409 218.66403884 330.96290588 225.47926331 C330.93653087 228.20104189 330.91558669 230.92282647 330.89489746 233.64465332 C330.69386952 256.1292792 330.69386952 256.1292792 327.34228516 260.65844727 C324.14939189 262.9060023 321.24515567 262.72824152 317.42431641 262.65063477 C315.80360229 262.62525635 315.80360229 262.62525635 314.15014648 262.59936523 C313.32667725 262.5776123 312.50320801 262.55585938 311.65478516 262.53344727 C311.6466983 261.49076691 311.63861145 260.44808655 311.63027954 259.37380981 C311.552581 249.51700251 311.46478303 239.66032923 311.36725807 229.80369759 C311.31744742 224.73707915 311.2711167 219.67048004 311.23291016 214.60375977 C311.19586413 209.70829906 311.14945324 204.81300626 311.09672165 199.91769028 C311.07827985 198.05595743 311.06313478 196.19418873 311.05144119 194.33240128 C311.03440252 191.7119068 311.00532775 189.09178841 310.97363281 186.47143555 C310.97147263 185.71257553 310.96931244 184.95371552 310.96708679 184.17185974 C310.87959232 178.45867185 309.92115034 173.09831142 308.65478516 167.53344727 C307.70486411 167.5329025 306.75494307 167.53235773 305.77623653 167.53179646 C282.61294275 167.51737131 259.44983624 167.47423179 236.28665066 167.4013567 C225.08487733 167.36677201 213.88322623 167.34135974 202.68139648 167.33789062 C192.91258866 167.33484165 183.14399888 167.31422602 173.37527519 167.27292269 C168.20755286 167.25167562 163.04013988 167.23894927 157.87237358 167.24729347 C152.9974931 167.25488632 148.1232367 167.2388001 143.24847031 167.20538712 C141.46968868 167.19721647 139.69084423 167.19732895 137.91206932 167.20685005 C127.80640048 167.25553946 119.41363607 166.40357509 109.95626926 162.70167065 C105.87633994 161.25799602 101.85957871 159.98841337 97.55852222 161.05165195 C96.96652877 161.34579959 96.37453531 161.63994722 95.76460266 161.94300842 C78.39756885 169.57478243 60.57510215 168.44677 41.99563766 168.24320483 C37.25923455 168.19891336 32.52278737 168.19529239 27.78620911 168.18702698 C18.85116665 168.16542428 9.91673652 168.10819398 0.98196155 168.03758055 C-9.2044598 167.95885338 -19.39091317 167.92072998 -29.57756388 167.8857125 C-50.50045362 167.81289443 -71.42279538 167.69007586 -92.34521484 167.53344727 C-92.93983474 175.2412419 -93.48842438 182.91849677 -93.55053711 190.65014648 C-93.56043671 191.45198364 -93.5703363 192.2538208 -93.58053589 193.07995605 C-93.61150643 195.66598816 -93.63664595 198.25203847 -93.66162109 200.83813477 C-93.68224671 202.65658987 -93.7032444 204.4750408 -93.72459412 206.29348755 C-93.77923688 211.03123539 -93.82889577 215.76902223 -93.87744141 220.50683594 C-93.92808429 225.36079288 -93.98354474 230.21469467 -94.03857422 235.06860352 C-94.1454465 244.55683741 -94.24704253 254.04511964 -94.34521484 263.53344727 C-96.72109108 263.41858302 -99.09536656 263.29186571 -101.47021484 263.15844727 C-102.13537109 263.12750977 -102.80052734 263.09657227 -103.48583984 263.06469727 C-107.74342746 262.81425094 -111.36607267 262.05816529 -115.34521484 260.53344727 C-115.67521484 258.88344727 -116.00521484 257.23344727 -116.34521484 255.53344727 C-117.00521484 255.53344727 -117.66521484 255.53344727 -118.34521484 255.53344727 C-118.34521484 225.83344727 -118.34521484 196.13344727 -118.34521484 165.53344727 C-120.32521484 164.87344727 -122.30521484 164.21344727 -124.34521484 163.53344727 C-131.7213628 159.40328889 -137.13174871 154.13717103 -142.34521484 147.53344727 C-142.82408646 147.12868164 -143.30295807 146.72391602 -143.79634094 146.30688477 C-152.76730557 136.03526416 -150.99403165 118.09631555 -150.83349609 105.53344727 C-150.82414793 103.35913921 -150.81704132 101.18482048 -150.8120575 99.01049805 C-150.7931454 93.34193841 -150.74418389 87.67403942 -150.6885376 82.0057373 C-150.637001 76.19996065 -150.61447058 70.39407519 -150.58935547 64.58813477 C-150.53604727 53.23628512 -150.45093015 41.88492155 -150.34521484 30.53344727 C-149.58623901 30.53646347 -148.82726318 30.53947968 -148.04528809 30.54258728 C-140.86584935 30.56490306 -133.6876051 30.5535143 -126.50832367 30.50498104 C-122.81792818 30.48120285 -119.12843256 30.47011332 -115.43798828 30.48876953 C-111.87122943 30.50632115 -108.30608084 30.48956541 -104.73951721 30.44976997 C-102.72785723 30.43605615 -100.71605628 30.45718016 -98.70446777 30.47898865 C-92.46764963 30.38100364 -88.35142311 30.2340854 -83.57373047 25.97705078 C-82.98386353 25.33550552 -82.39399658 24.69396027 -81.78625488 24.03297424 C-81.07294006 23.29070839 -81.07294006 23.29070839 -80.34521484 22.53344727 C-79.68521484 22.53344727 -79.02521484 22.53344727 -78.34521484 22.53344727 C-78.34521484 21.87344727 -78.34521484 21.21344727 -78.34521484 20.53344727 C-76.66552734 19.24438477 -76.66552734 19.24438477 -74.47021484 17.90844727 C-73.75091797 17.46243164 -73.03162109 17.01641602 -72.29052734 16.55688477 C-70.34521484 15.53344727 -70.34521484 15.53344727 -68.34521484 15.53344727 C-68.34521484 14.87344727 -68.34521484 14.21344727 -68.34521484 13.53344727 C-63.67854818 11.53344727 -59.01188151 9.53344727 -54.34521484 7.53344727 C-53.33894358 7.06449256 -52.33267231 6.59553785 -51.29590797 6.1123724 C-35.33700347 -0.68289896 -16.97898597 -0.04965678 0 0 Z " fill="#754E25" transform="translate(213.34521484375,1.466552734375)"/>
<path d="M0 0 C0 0.66 0 1.32 0 2 C1.0828125 2.309375 1.0828125 2.309375 2.1875 2.625 C10.75496453 6.81353822 13.8158676 17.42439948 17.05078125 25.72265625 C18.13202343 28.31674758 19.44154926 30.6623239 21 33 C23.87760072 29.59919915 24.46951823 27.59144531 26 23 C44.48 23 62.96 23 82 23 C82.99 25.31 83.98 27.62 85 30 C88.69109057 29.07722736 89.87374966 28.18363685 92.0625 25 C93.57365922 22.12103263 94.65894904 19.18375422 95.75 16.125 C99.22704997 7.27065181 105.15404538 1.79559702 113.703125 -2.125 C122.16199859 -5.34742804 130.06269504 -4.60620708 138.390625 -1.265625 C147.35458931 3.08216607 153.12922244 9.45937821 156.88671875 18.62890625 C158.46897232 21.99882876 160.60325674 24.88554119 162.828125 27.859375 C164 30 164 30 164 35 C138.59 35 113.18 35 87 35 C88.65 39.62 90.3 44.24 92 49 C92.99 51.97 92.99 51.97 94 55 C94.495 55.969375 94.99 56.93875 95.5 57.9375 C97.11728602 61.23945896 98.00754997 64.46439677 99 68 C99.98511802 70.3396553 100.98470459 72.67328135 102 75 C102.67902182 76.99583913 103.34769004 78.99527155 104 81 C104.60473145 81.01458252 105.20946289 81.02916504 105.83251953 81.04418945 C108.59729265 81.11909188 111.36091357 81.21561073 114.125 81.3125 C115.55199219 81.34633789 115.55199219 81.34633789 117.0078125 81.38085938 C123.34175194 81.62278067 128.03782837 82.24318901 132.859375 86.73046875 C134.49756903 89.99002604 134.32290591 92.68543091 134.25 96.3125 C134.23453125 97.58738281 134.2190625 98.86226563 134.203125 100.17578125 C133.66343042 110.33656958 133.66343042 110.33656958 130.6875 113.3125 C127.58427301 115.11896789 124.59658758 115.35584737 121.0625 115.75 C115.21007704 116.5434255 112.75622661 118.40734493 109.20703125 123.02734375 C107.84680645 125.08390464 107.84680645 125.08390464 107 128 C108.10167511 127.99333817 109.20335022 127.98667633 110.33840942 127.97981262 C120.7261071 127.91896915 131.11376857 127.87401176 141.50160408 127.84456348 C146.84196531 127.82891482 152.18218256 127.80769095 157.52246094 127.77368164 C162.67716765 127.74105997 167.83173595 127.72314097 172.98653793 127.71536827 C174.95210829 127.70982983 176.91767117 127.69901459 178.88318253 127.68280983 C181.63859615 127.66099837 184.39343956 127.65803464 187.14892578 127.65942383 C187.95956985 127.648638 188.77021393 127.63785217 189.60542297 127.6267395 C194.42862831 127.65301168 197.91453226 128.15455144 202 131 C203.88007114 134.69146663 204.25537316 137.75352555 204.27415466 141.86428833 C204.28412979 143.03851349 204.29410492 144.21273865 204.30438232 145.42254639 C204.305047 146.70252502 204.30571167 147.98250366 204.30639648 149.30126953 C204.3140231 150.67018076 204.32245146 152.03908773 204.33161926 153.4079895 C204.35354467 157.123735 204.3623626 160.83939817 204.36744571 164.55520105 C204.37109709 166.88494359 204.37734175 169.21466486 204.3844471 171.54439926 C204.40895226 179.69708951 204.42199203 187.84971623 204.42553711 196.00244141 C204.42915467 203.55780947 204.45891834 211.11276687 204.50094169 218.66800988 C204.53588566 225.18301724 204.55108981 231.69789042 204.55178314 238.21299064 C204.552569 242.09087682 204.56097985 245.96834622 204.58978081 249.84613419 C204.73177796 270.2110388 203.39865779 288.13076885 195 307 C194.566875 308.19625 194.13375 309.3925 193.6875 310.625 C191.4898266 315.0203468 188.60637232 318.65432929 185 322 C184.34 322 183.68 322 183 322 C183 322.66 183 323.32 183 324 C182.34 324 181.68 324 181 324 C180.67 324.99 180.34 325.98 180 327 C178.36328125 328.6484375 178.36328125 328.6484375 176.3125 330.375 C175.2296875 331.29539062 175.2296875 331.29539062 174.125 332.234375 C172.35793452 333.70259852 170.58648392 335.16515906 168.8125 336.625 C165.99479348 338.92652729 165.99479348 338.92652729 163.625 341.4375 C158.05626874 346.87364243 151.17700567 353 143 353 C143 353.66 143 354.32 143 355 C141.02231717 355.62967954 139.04276065 356.25347489 137.0625 356.875 C135.96035156 357.22304688 134.85820312 357.57109375 133.72265625 357.9296875 C125.05401927 360.42203433 117.23660799 361.30497147 108.19433594 361.32226562 C106.93928253 361.33219543 105.68422913 361.34212524 104.3911438 361.35235596 C100.96882599 361.37644372 97.54675058 361.39145742 94.12437725 361.40037727 C91.9748375 361.40627617 89.82531819 361.41449286 87.67578888 361.42338562 C80.91774985 361.45069651 74.15975864 361.47004358 67.40166831 361.4777894 C59.66236963 361.48671382 51.92378393 361.521652 44.18470168 361.57979059 C38.16384573 361.62341203 32.14318732 361.64321862 26.12217546 361.64587164 C22.54487174 361.64794224 18.96823956 361.65919373 15.39110565 361.69551086 C-3.1897229 361.87313095 -22.19003074 361.88377171 -38.17883682 351.17404938 C-40.06067768 349.96088291 -41.98253452 348.96744732 -44 348 C-44 347.34 -44 346.68 -44 346 C-45.05960938 345.64228516 -45.05960938 345.64228516 -46.140625 345.27734375 C-55.28505149 341.19233356 -62.02927596 333.0018992 -67.97265625 325.2421875 C-69.96858434 322.67526364 -69.96858434 322.67526364 -73.75 321.6875 C-78.01543413 319.47275535 -78.18674449 317.65394433 -79.75 313.1875 C-80.29914063 311.38345703 -80.29914063 311.38345703 -80.859375 309.54296875 C-81.89334232 306.01923582 -81.89334232 306.01923582 -83.515625 302.98828125 C-85.14907974 299.69987895 -86.02780419 296.54084563 -87 293 C-87.52055969 291.25916893 -87.52055969 291.25916893 -88.05163574 289.48316956 C-91.98134631 275.14805835 -91.59025421 260.5456191 -91.53730202 245.80700755 C-91.52702949 242.04365501 -91.53660479 238.2803375 -91.54284668 234.51698303 C-91.55007426 228.21250268 -91.5406569 221.90821129 -91.52148438 215.60375977 C-91.49963953 208.33707825 -91.50684145 201.07084446 -91.52879 193.80417341 C-91.54698292 187.52682529 -91.54948594 181.24961126 -91.53903532 174.97224528 C-91.53283258 171.23916789 -91.53187685 167.50630072 -91.54518127 163.77323723 C-91.55895949 159.61930919 -91.539827 155.46614716 -91.51757812 151.31225586 C-91.52567505 150.09184097 -91.53377197 148.87142609 -91.54211426 147.61402893 C-91.47508195 140.84442411 -91.12465597 133.12465597 -86 128 C-83.23061034 127.90482197 -80.48622841 127.87445735 -77.71655273 127.88647461 C-76.41423203 127.88625557 -76.41423203 127.88625557 -75.08560181 127.8860321 C-72.20157414 127.88673154 -69.3176102 127.89452537 -66.43359375 127.90234375 C-64.43962133 127.90420782 -62.44564845 127.90563177 -60.45167542 127.90663147 C-55.19254298 127.91045752 -49.93343797 127.92028855 -44.67431641 127.93133545 C-39.31217825 127.9415477 -33.95003569 127.94612869 -28.58789062 127.95117188 C-18.05858167 127.96191074 -7.52929311 127.9789882 3 128 C1.60718077 126.192574 0.19931508 124.3967359 -1.21484375 122.60595703 C-1.99722412 121.60468781 -2.77960449 120.60341858 -3.58569336 119.57180786 C-7.07260316 115.85742383 -10.0645525 115.18836175 -15 114.875 C-16.50019493 114.70746554 -18.00020747 114.53828683 -19.5 114.3671875 C-20.655 114.24601562 -21.81 114.12484375 -23 114 C-26.27937212 110.72062788 -25.1612348 100.56990629 -25.25 96.25 C-25.27578125 94.99703125 -25.3015625 93.7440625 -25.328125 92.453125 C-24.97011428 88.68548837 -24.50147274 86.83780521 -22 84 C-19.4921875 83.22265625 -19.4921875 83.22265625 -16 83 C-14.78618652 82.92241455 -14.78618652 82.92241455 -13.54785156 82.84326172 C-10.7408797 82.67894382 -7.93435867 82.55360493 -5.125 82.4375 C-4.15046875 82.39431641 -3.1759375 82.35113281 -2.171875 82.30664062 C0.21862802 82.20117726 2.60922444 82.09905825 5 82 C5.11899658 81.4112207 5.23799316 80.82244141 5.3605957 80.21582031 C6.28323116 75.83341394 7.30562071 71.8348984 9.1875 67.75 C12.08953485 61.07359244 14.33374181 54.21583452 16.58862305 47.29785156 C16.87261963 46.42741211 17.15661621 45.55697266 17.44921875 44.66015625 C17.82566528 43.49432007 17.82566528 43.49432007 18.2097168 42.30493164 C19.05510979 39.83926737 20.03194545 37.42013636 21 35 C-4.74 35 -30.48 35 -57 35 C-57 33.02 -57 31.04 -57 29 C-56.05125 28.78472656 -55.1025 28.56945312 -54.125 28.34765625 C-50.82504293 27.32277357 -50.82504293 27.32277357 -49.75 24.49609375 C-49.5025 23.48675781 -49.255 22.47742188 -49 21.4375 C-46.09430246 11.52254841 -41.06111994 4.24890621 -32 -1 C-20.38725759 -5.70877434 -11.45925111 -4.34326946 0 0 Z " fill="#8D643B" transform="translate(269,226)"/>
<path d="M0 0 C0 0.66 0 1.32 0 2 C0.721875 2.20625 1.44375 2.4125 2.1875 2.625 C10.75496453 6.81353822 13.8158676 17.42439948 17.05078125 25.72265625 C18.13202343 28.31674758 19.44154926 30.6623239 21 33 C23.87760072 29.59919915 24.46951823 27.59144531 26 23 C44.48 23 62.96 23 82 23 C82.99 25.31 83.98 27.62 85 30 C88.69109057 29.07722736 89.87374966 28.18363685 92.0625 25 C93.57365922 22.12103263 94.65894904 19.18375422 95.75 16.125 C99.22704997 7.27065181 105.15404538 1.79559702 113.703125 -2.125 C122.16199859 -5.34742804 130.06269504 -4.60620708 138.390625 -1.265625 C147.35458931 3.08216607 153.12922244 9.45937821 156.88671875 18.62890625 C158.46897232 21.99882876 160.60325674 24.88554119 162.828125 27.859375 C164 30 164 30 164 35 C138.59 35 113.18 35 87 35 C88.65 39.62 90.3 44.24 92 49 C92.99 51.97 92.99 51.97 94 55 C94.495 55.969375 94.99 56.93875 95.5 57.9375 C97.11728602 61.23945896 98.00754997 64.46439677 99 68 C99.98511802 70.3396553 100.98470459 72.67328135 102 75 C102.67902182 76.99583913 103.34769004 78.99527155 104 81 C104.60473145 81.01458252 105.20946289 81.02916504 105.83251953 81.04418945 C108.59729265 81.11909188 111.36091357 81.21561073 114.125 81.3125 C115.55199219 81.34633789 115.55199219 81.34633789 117.0078125 81.38085938 C123.34175194 81.62278067 128.03782837 82.24318901 132.859375 86.73046875 C134.49756903 89.99002604 134.32290591 92.68543091 134.25 96.3125 C134.23453125 97.58738281 134.2190625 98.86226563 134.203125 100.17578125 C133.66343042 110.33656958 133.66343042 110.33656958 130.6875 113.3125 C127.59008058 115.12925562 124.72511368 115.25566616 121.1875 115.5625 C118.06293605 115.85950942 118.06293605 115.85950942 115 117 C113.1568287 119.5199018 113.1568287 119.5199018 111.55664062 122.49853516 C108.38104733 126.5638791 106.41059811 128.24853694 101.28320312 129.05316162 C95.16431869 129.60314684 89.04364239 129.53129165 82.90625 129.4609375 C80.6313756 129.46835536 78.35650973 129.47903772 76.08166504 129.49282837 C71.32328955 129.50901009 66.56719175 129.48559949 61.80908203 129.43408203 C55.72470076 129.37139737 49.64565566 129.40750386 43.56147003 129.47337914 C38.86663974 129.51322749 34.17306435 129.50043484 29.47819519 129.47197342 C27.23601135 129.46466216 24.99371166 129.47354746 22.75166321 129.4992485 C4.25738017 129.66475256 4.25738017 129.66475256 -0.26611328 125.51303101 C-2.65820312 122.51464844 -2.65820312 122.51464844 -4.39758301 119.52044678 C-6.23984969 116.62273966 -7.28088637 116.07794545 -10.5625 115.3046875 C-12.0361746 115.1130321 -13.51690136 114.96916499 -15 114.875 C-16.50019493 114.70746554 -18.00020747 114.53828683 -19.5 114.3671875 C-20.655 114.24601562 -21.81 114.12484375 -23 114 C-26.27937212 110.72062788 -25.1612348 100.56990629 -25.25 96.25 C-25.27578125 94.99703125 -25.3015625 93.7440625 -25.328125 92.453125 C-24.97011428 88.68548837 -24.50147274 86.83780521 -22 84 C-19.4921875 83.22265625 -19.4921875 83.22265625 -16 83 C-15.19079102 82.94827637 -14.38158203 82.89655273 -13.54785156 82.84326172 C-10.7408797 82.67894382 -7.93435867 82.55360493 -5.125 82.4375 C-4.15046875 82.39431641 -3.1759375 82.35113281 -2.171875 82.30664062 C0.21862802 82.20117726 2.60922444 82.09905825 5 82 C5.17849487 81.11683105 5.17849487 81.11683105 5.3605957 80.21582031 C6.28323116 75.83341394 7.30562071 71.8348984 9.1875 67.75 C12.08953485 61.07359244 14.33374181 54.21583452 16.58862305 47.29785156 C16.87261963 46.42741211 17.15661621 45.55697266 17.44921875 44.66015625 C17.82566528 43.49432007 17.82566528 43.49432007 18.2097168 42.30493164 C19.05510979 39.83926737 20.03194545 37.42013636 21 35 C-4.74 35 -30.48 35 -57 35 C-57 33.02 -57 31.04 -57 29 C-56.05125 28.78472656 -55.1025 28.56945312 -54.125 28.34765625 C-50.82504293 27.32277357 -50.82504293 27.32277357 -49.75 24.49609375 C-49.5025 23.48675781 -49.255 22.47742188 -49 21.4375 C-46.09430246 11.52254841 -41.06111994 4.24890621 -32 -1 C-20.38725759 -5.70877434 -11.45925111 -4.34326946 0 0 Z " fill="#F05A27" transform="translate(269,226)"/>
<path d="M0 0 C0.04898437 1.01320313 0.09796875 2.02640625 0.1484375 3.0703125 C0.22352564 4.42189911 0.29907081 5.77346038 0.375 7.125 C0.4059375 7.79015625 0.436875 8.4553125 0.46875 9.140625 C0.71823594 13.38188596 1.18012106 17.13716018 3 21 C5.77447271 22.00183039 8.39613538 22.12871502 11.32641602 22.14044189 C12.18437775 22.14615204 13.04233948 22.15186218 13.92630005 22.15774536 C14.8594101 22.15886322 15.79252014 22.15998108 16.75390625 22.16113281 C17.74292938 22.16609772 18.73195251 22.17106262 19.75094604 22.17617798 C23.0214711 22.19077953 26.29194771 22.19759707 29.5625 22.203125 C31.83406577 22.20887659 34.10563153 22.21463432 36.37719727 22.22039795 C41.13851142 22.23090117 45.89980871 22.23674879 50.66113281 22.24023438 C56.76794493 22.24572813 62.8745351 22.26977792 68.98127747 22.29820633 C73.67208514 22.31680694 78.36283897 22.32203686 83.05368042 22.32357025 C85.3055849 22.3266014 87.55748833 22.3346454 89.80935669 22.34775543 C92.95510924 22.36476735 96.10031416 22.36294784 99.24609375 22.35644531 C100.64575882 22.37026749 100.64575882 22.37026749 102.07369995 22.3843689 C107.00246178 22.37052493 107.00246178 22.37052493 111.54711914 20.66522217 C114.4393759 17.35025657 114.27052286 13.52531296 114.5625 9.3125 C114.64628906 8.13300781 114.73007812 6.95351563 114.81640625 5.73828125 C114.87699219 4.83464844 114.93757812 3.93101562 115 3 C120.66467274 0.57228311 124.82635422 -0.70845116 131 0 C133.9375 1.625 133.9375 1.625 136 4 C140.36046181 22.27505651 135.54317677 37.70214865 126.13134766 53.19970703 C123.70318486 57.06359838 121.02572754 60.58917986 118 64 C117.4328125 64.66 116.865625 65.32 116.28125 66 C106.80228611 76.28226591 95.12111606 81.8306734 82 86 C81.0615625 86.391875 80.123125 86.78375 79.15625 87.1875 C65.40148556 92.75122494 47.54420627 91.41764999 33.875 86.125 C32.24645559 85.42485414 30.6213016 84.71675813 29 84 C28.26136719 83.70222656 27.52273438 83.40445313 26.76171875 83.09765625 C8.32060427 75.46572077 -3.78943681 62.30585985 -13 45 C-18.69241494 30.94541217 -19.16852007 17.92338822 -19 3 C-17.14874911 2.4893101 -15.29381095 1.99197934 -13.4375 1.5 C-11.88869141 1.08234375 -11.88869141 1.08234375 -10.30859375 0.65625 C-6.79385065 -0.04088913 -3.57399606 -0.10816634 0 0 Z " fill="#D0252A" transform="translate(267,402)"/>
<path d="M0 0 C37.62 0 75.24 0 114 0 C114 16 114 16 111 21 C107.91478771 23.0568082 107.28347194 23.25043221 103.80056763 23.25396729 C102.51785477 23.26242676 102.51785477 23.26242676 101.20922852 23.27105713 C100.27409424 23.26700867 99.33895996 23.26296021 98.37548828 23.25878906 C97.38821747 23.2622937 96.40094666 23.26579834 95.38375854 23.26940918 C92.11253881 23.27822819 88.84153453 23.27237577 85.5703125 23.265625 C83.29971271 23.26697182 81.0291132 23.26891248 78.7585144 23.27142334 C73.99539449 23.27437501 69.2323495 23.27007632 64.46923828 23.26074219 C58.36365336 23.24936065 52.25824452 23.25589869 46.15266609 23.26788712 C41.46180903 23.27511557 36.77099367 23.27281301 32.08013535 23.26763153 C29.82906956 23.26629709 27.57799999 23.26793555 25.32693863 23.27259064 C22.17895745 23.27767052 19.03126078 23.26992424 15.88330078 23.25878906 C14.48667206 23.26486176 14.48667206 23.26486176 13.06182861 23.27105713 C3.20648713 23.20648713 3.20648713 23.20648713 0 20 C0 13.4 0 6.8 0 0 Z " fill="#FDFAFA" transform="translate(268,402)"/>
<path d="M0 0 C0 0.66 0 1.32 0 2 C0.721875 2.20625 1.44375 2.4125 2.1875 2.625 C7.67802013 5.30925429 10.39932803 10.3766213 13.203125 15.58203125 C14.40907596 19.24126479 14.57452598 23.1707338 15 27 C-5.79 27 -26.58 27 -48 27 C-48 16.17162477 -47.02992391 12.17037554 -39.76171875 4.69921875 C-27.37158953 -6.11003274 -14.56758479 -5.52138578 0 0 Z " fill="#0C0C09" transform="translate(269,226)"/>
<path d="M0 0 C7.64077034 5.4576931 11.89889196 11.35351283 13.703125 20.609375 C13.703125 22.259375 13.703125 23.909375 13.703125 25.609375 C-7.086875 25.609375 -27.876875 25.609375 -49.296875 25.609375 C-48.22075779 14.84820285 -46.27703584 9.13382548 -38.609375 1.734375 C-26.87660502 -7.71888538 -12.61093322 -7.63519086 0 0 Z " fill="#0C0C09" transform="translate(412.296875,227.390625)"/>
<path d="M0 0 C2.77237284 1.38618642 2.84378882 2.86942662 3.875 5.75 C5.10090283 8.98988605 6.06099193 11.07623992 8.25 13.8125 C10 16 10 16 10 21 C-15.41 21 -40.82 21 -67 21 C-67.33 21.66 -67.66 22.32 -68 23 C-68 21.35 -68 19.7 -68 18 C-68.66 18 -69.32 18 -70 18 C-69.67 17.34 -69.34 16.68 -69 16 C-68.21625 15.7525 -67.4325 15.505 -66.625 15.25 C-63.10596134 13.5742673 -62.45286974 11.51747412 -61 8 C-60.67 8 -60.34 8 -60 8 C-60 9.65 -60 11.3 -60 13 C-39.21 13 -18.42 13 3 13 C2.01 8.71 1.02 4.42 0 0 Z " fill="#93693F" transform="translate(423,240)"/>
<path d="M0 0 C0.33 0 0.66 0 1 0 C1 2.31 1 4.62 1 7 C21.79 7 42.58 7 64 7 C63.505 4.525 63.505 4.525 63 2 C65 3 65 3 66.4375 6.375 C67.78781826 9.50773836 68.52878807 10.86577152 71 13 C71.495 13.99 71.495 13.99 72 15 C71.34 15.66 70.68 16.32 70 17 C70 16.34 70 15.68 70 15 C44.26 15 18.52 15 -8 15 C-8 13.02 -8 11.04 -8 9 C-7.05125 8.814375 -6.1025 8.62875 -5.125 8.4375 C-1.61628301 7.26599195 -1.61628301 7.26599195 -0.625 3.375 C-0.41875 2.26125 -0.2125 1.1475 0 0 Z " fill="#93693F" transform="translate(220,246)"/>
<path d="M0 0 C0 0.99 0 1.98 0 3 C-0.9590625 3.37125 -0.9590625 3.37125 -1.9375 3.75 C-4.49019039 4.96621634 -4.49019039 4.96621634 -5 9 C-24.8 9 -44.6 9 -65 9 C-65 8.67 -65 8.34 -65 8 C-64.30366455 8.0030162 -63.6073291 8.00603241 -62.88989258 8.00914001 C-56.29917694 8.03146674 -49.70946139 8.02004204 -43.11886597 7.97153378 C-39.73111611 7.94776735 -36.34434583 7.93665329 -32.95654297 7.95532227 C-29.0534697 7.97036163 -25.15287084 7.94060319 -21.25 7.90234375 C-20.04448486 7.91659897 -18.83896973 7.93085419 -17.59692383 7.94554138 C-10.32213798 7.82121818 -6.41854522 6.78724449 -1.28417969 1.49952698 C-0.86040039 1.00468307 -0.43662109 0.50983917 0 0 Z " fill="#967859" transform="translate(133,24)"/>
<path d="M0 0 C0.33 0 0.66 0 1 0 C1.09688221 5.44693314 1.12862175 10.63904667 0 16 C-0.66 16 -1.32 16 -2 16 C-2.05449838 14.27119018 -2.09301688 12.54187288 -2.125 10.8125 C-2.14820313 9.84957031 -2.17140625 8.88664063 -2.1953125 7.89453125 C-1.9913544 4.87187222 -1.26874632 2.73230015 0 0 Z " fill="#896845" transform="translate(543,239)"/>
<path d="M0 0 C0.33 0.99 0.66 1.98 1 3 C0.278125 3.556875 -0.44375 4.11375 -1.1875 4.6875 C-4.79251871 7.6516265 -7.98315603 10.92505066 -11.1875 14.3125 C-13 16 -13 16 -15 16 C-13.46518706 12.19331705 -11.13477919 10.1037511 -8.0625 7.4375 C-3.92587532 3.83064366 -3.92587532 3.83064366 0 0 Z " fill="#987C5E" transform="translate(558,149)"/>
<path d="M0 0 C5.29012124 4.40843437 10.18808428 9.07559794 15 14 C14.67 14.66 14.34 15.32 14 16 C8.92734681 11.76420584 3.80424409 7.46139587 0 2 C0 1.34 0 0.68 0 0 Z " fill="#AA8C6E" transform="translate(202,551)"/>
<path d="M0 0 C0.33 0.66 0.66 1.32 1 2 C-1.28703308 3.19725883 -3.57884862 4.38297018 -5.875 5.5625 C-6.52597656 5.90474609 -7.17695313 6.24699219 -7.84765625 6.59960938 C-9.53529857 7.46082891 -11.26579593 8.23686703 -13 9 C-13.66 8.67 -14.32 8.34 -15 8 C-14.01 7.67 -13.02 7.34 -12 7 C-12 6.34 -12 5.68 -12 5 C-8.04 3.35 -4.08 1.7 0 0 Z " fill="#90704E" transform="translate(157,10)"/>
<path d="M0 0 C0.66 0.33 1.32 0.66 2 1 C0.33333333 2.66666667 -1.33333333 4.33333333 -3 6 C-3.556875 6.598125 -4.11375 7.19625 -4.6875 7.8125 C-6 9 -6 9 -8 9 C-6.4169423 4.7257442 -3.49431596 2.73468206 0 0 Z " fill="#3B3122" transform="translate(234,227)"/>
<path d="M0 0 C2.31 0 4.62 0 7 0 C6.01 1.485 6.01 1.485 5 3 C1.875 3.1875 1.875 3.1875 -1 3 C-0.67 2.01 -0.34 1.02 0 0 Z " fill="#886643" transform="translate(187,2)"/>
<path d="M0 0 C0.33 0.99 0.66 1.98 1 3 C-2.32307692 6.93846154 -2.32307692 6.93846154 -5.75 7.25 C-6.4925 7.1675 -7.235 7.085 -8 7 C-7 5 -7 5 -4.5625 4.0625 C-1.70136041 3.15452711 -1.70136041 3.15452711 0 0 Z " fill="#B88252" transform="translate(361,251)"/>
<path d="" fill="#FDD7A8" transform="translate(0,0)"/>
<path d="" fill="#FECB90" transform="translate(0,0)"/>
<path d="" fill="#FECF9A" transform="translate(0,0)"/>
<path d="" fill="#FDCC91" transform="translate(0,0)"/>
</svg>
